# MagicaVoxel @ Ephtracy

# group
o 

# material
mtllib goomba_alternativo-0.mtl
usemtl palette

# normals
vn -1 0 0
vn 1 0 0
vn 0 0 1
vn 0 0 -1
vn 0 -1 0
vn 0 1 0

# texcoords
vt 0.486328 0.5
vt 0.580078 0.5
vt 0.583984 0.5
vt 0.591797 0.5
vt 0.873047 0.5
vt 0.986328 0.5
vt 0.990234 0.5

# verts
v 12.8 6.2 -0.4
v 12.8 6.2 -5.6
v 12.8 11 -0.4
v 12.8 11 -5.6
v 13.2 4.4 -0.8
v 13.2 4.4 -5.2
v 13.2 4.9 -0.8
v 13.2 4.9 -5.2
v 13.2 9.8 0
v 13.2 9.8 -0.4
v 13.2 10.2 0
v 13.2 10.2 -0.4
v 13.2 11 -0.8
v 13.2 11 -5.2
v 13.2 11.4 -0.8
v 13.2 11.4 -5.2
v 13.3 4.3 -0.9
v 13.3 4.3 -5.1
v 13.3 4.4 -0.9
v 13.3 4.4 -5.1
v 13.3 4.9 -0.9
v 13.3 4.9 -5.1
v 13.3 5 -0.9
v 13.3 5 -5.1
v 13.4 4.2 -1
v 13.4 4.2 -5
v 13.4 4.3 -1
v 13.4 4.3 -5
v 13.6 5 -1.2
v 13.6 5 -4.8
v 13.6 6.2 -1.2
v 13.6 6.2 -4.8
v 13.6 8.2 0
v 13.6 8.2 -0.4
v 13.6 9.8 0
v 13.6 9.8 -0.4
v 13.6 10.2 0
v 13.6 10.2 -0.4
v 13.6 10.6 0
v 13.6 10.6 -0.4
v 14.4 6.6 -0.4
v 14.4 6.6 -0.8
v 14.4 7 -0.4
v 14.4 7 -0.8
v 15.2 6.6 -0.4
v 15.2 6.6 -0.8
v 15.2 6.7 -0.4
v 15.2 6.7 -0.8
v 15.4 6.7 -0.4
v 15.4 6.7 -0.8
v 15.4 6.8 -0.4
v 15.4 6.8 -0.8
v 15.5 6.8 -0.4
v 15.5 6.8 -0.8
v 15.5 6.9 -0.4
v 15.5 6.9 -0.8
v 16 4.4 -0.8
v 16 4.4 -5.2
v 16 4.9 -0.8
v 16 4.9 -5.2
v 16 8.2 0
v 16 8.2 -0.4
v 16 9 0
v 16 9 -0.4
v 16 9.8 0
v 16 9.8 -0.4
v 16 10.2 0
v 16 10.2 -0.4
v 16.1 4.3 -0.9
v 16.1 4.3 -5.1
v 16.1 4.4 -0.9
v 16.1 4.4 -5.1
v 16.1 4.9 -0.9
v 16.1 4.9 -5.1
v 16.1 5 -0.9
v 16.1 5 -1.2
v 16.1 5 -4.8
v 16.1 5 -5.1
v 16.2 4.2 -1
v 16.2 4.2 -5
v 16.2 4.3 -1
v 16.2 4.3 -5
v 16.4 6.6 -0.4
v 16.4 6.6 -0.8
v 16.4 7 -0.4
v 16.4 7 -0.8
v 16.8 10.2 0
v 16.8 10.2 -0.4
v 16.8 10.6 0
v 16.8 10.6 -0.4
v 18 6.6 -0.4
v 18 6.6 -0.8
v 18 7 -0.4
v 18 7 -0.8
v 13.2 6.6 -0.4
v 13.2 6.6 -0.8
v 13.2 7 -0.4
v 13.2 7 -0.8
v 14.4 10.2 0
v 14.4 10.2 -0.4
v 14.4 10.6 0
v 14.4 10.6 -0.4
v 14.8 6.6 -0.4
v 14.8 6.6 -0.8
v 14.8 7 -0.4
v 14.8 7 -0.8
v 15 4.2 -1
v 15 4.2 -5
v 15 4.3 -1
v 15 4.3 -5
v 15.1 4.3 -0.9
v 15.1 4.3 -5.1
v 15.1 4.4 -0.9
v 15.1 4.4 -5.1
v 15.1 4.9 -0.9
v 15.1 4.9 -5.1
v 15.1 5 -0.9
v 15.1 5 -1.2
v 15.1 5 -4.8
v 15.1 5 -5.1
v 15.2 4.4 -0.8
v 15.2 4.4 -5.2
v 15.2 4.9 -0.8
v 15.2 4.9 -5.2
v 15.2 8.2 0
v 15.2 8.2 -0.4
v 15.2 9 0
v 15.2 9 -0.4
v 15.2 9.8 0
v 15.2 9.8 -0.4
v 15.2 10.2 0
v 15.2 10.2 -0.4
v 15.7 6.8 -0.4
v 15.7 6.8 -0.8
v 15.7 6.9 -0.4
v 15.7 6.9 -0.8
v 15.8 6.7 -0.4
v 15.8 6.7 -0.8
v 15.8 6.8 -0.4
v 15.8 6.8 -0.8
v 16 6.6 -0.4
v 16 6.6 -0.8
v 16 6.7 -0.4
v 16 6.7 -0.8
v 16.8 6.6 -0.4
v 16.8 6.6 -0.8
v 16.8 7 -0.4
v 16.8 7 -0.8
v 17.6 5 -1.2
v 17.6 5 -4.8
v 17.6 6.2 -1.2
v 17.6 6.2 -4.8
v 17.6 8.2 0
v 17.6 8.2 -0.4
v 17.6 9.8 0
v 17.6 9.8 -0.4
v 17.6 10.2 0
v 17.6 10.2 -0.4
v 17.6 10.6 0
v 17.6 10.6 -0.4
v 17.8 4.2 -1
v 17.8 4.2 -5
v 17.8 4.3 -1
v 17.8 4.3 -5
v 17.9 4.3 -0.9
v 17.9 4.3 -5.1
v 17.9 4.4 -0.9
v 17.9 4.4 -5.1
v 17.9 4.9 -0.9
v 17.9 4.9 -5.1
v 17.9 5 -0.9
v 17.9 5 -5.1
v 18 4.4 -0.8
v 18 4.4 -5.2
v 18 4.9 -0.8
v 18 4.9 -5.2
v 18 9.8 0
v 18 9.8 -0.4
v 18 10.2 0
v 18 10.2 -0.4
v 18 11 -0.8
v 18 11 -5.2
v 18 11.4 -0.8
v 18 11.4 -5.2
v 18.4 6.2 -0.4
v 18.4 6.2 -5.6
v 18.4 11 -0.4
v 18.4 11 -5.6
v 13.2 9.8 0
v 13.2 10.2 0
v 13.6 8.2 0
v 13.6 9.8 0
v 13.6 10.2 0
v 13.6 10.6 0
v 14 8.6 0
v 14 9.4 0
v 14 9.8 0
v 14.4 10.2 0
v 14.4 10.6 0
v 14.8 8.6 0
v 14.8 9.4 0
v 15.2 8.2 0
v 15.2 9 0
v 15.2 9.4 0
v 15.2 9.8 0
v 15.2 10.2 0
v 16 8.2 0
v 16 9 0
v 16 9.4 0
v 16 9.8 0
v 16 10.2 0
v 16.4 8.6 0
v 16.4 9.4 0
v 16.8 10.2 0
v 16.8 10.6 0
v 17.2 8.6 0
v 17.2 9.4 0
v 17.2 9.8 0
v 17.6 8.2 0
v 17.6 9.8 0
v 17.6 10.2 0
v 17.6 10.6 0
v 18 9.8 0
v 18 10.2 0
v 12.8 6.2 -0.4
v 12.8 11 -0.4
v 13.2 6.6 -0.4
v 13.2 7 -0.4
v 13.2 9.8 -0.4
v 13.2 10.2 -0.4
v 13.6 7 -0.4
v 13.6 7.4 -0.4
v 13.6 8.2 -0.4
v 13.6 9.8 -0.4
v 13.6 10.2 -0.4
v 13.6 10.6 -0.4
v 14 7 -0.4
v 14 7.4 -0.4
v 14.4 6.6 -0.4
v 14.4 7 -0.4
v 14.4 10.2 -0.4
v 14.4 10.6 -0.4
v 14.8 6.6 -0.4
v 14.8 7 -0.4
v 15.2 6.6 -0.4
v 15.2 6.7 -0.4
v 15.2 8.2 -0.4
v 15.2 9 -0.4
v 15.2 9.8 -0.4
v 15.2 10.2 -0.4
v 15.4 6.7 -0.4
v 15.4 6.8 -0.4
v 15.5 6.8 -0.4
v 15.5 6.9 -0.4
v 15.7 6.8 -0.4
v 15.7 6.9 -0.4
v 15.8 6.7 -0.4
v 15.8 6.8 -0.4
v 16 6.6 -0.4
v 16 6.7 -0.4
v 16 8.2 -0.4
v 16 9 -0.4
v 16 9.8 -0.4
v 16 10.2 -0.4
v 16.4 6.6 -0.4
v 16.4 7 -0.4
v 16.8 6.6 -0.4
v 16.8 7 -0.4
v 16.8 10.2 -0.4
v 16.8 10.6 -0.4
v 17.2 7 -0.4
v 17.2 7.4 -0.4
v 17.6 7 -0.4
v 17.6 7.4 -0.4
v 17.6 8.2 -0.4
v 17.6 9.8 -0.4
v 17.6 10.2 -0.4
v 17.6 10.6 -0.4
v 18 6.6 -0.4
v 18 7 -0.4
v 18 9.8 -0.4
v 18 10.2 -0.4
v 18.4 6.2 -0.4
v 18.4 11 -0.4
v 13.2 4.4 -0.8
v 13.2 4.9 -0.8
v 13.2 6.6 -0.8
v 13.2 7 -0.8
v 13.2 11 -0.8
v 13.2 11.4 -0.8
v 13.6 7 -0.8
v 14 7 -0.8
v 14.4 6.6 -0.8
v 14.4 7 -0.8
v 14.8 6.6 -0.8
v 14.8 7 -0.8
v 15.2 4.4 -0.8
v 15.2 4.9 -0.8
v 15.2 6.6 -0.8
v 15.2 6.7 -0.8
v 15.4 6.7 -0.8
v 15.4 6.8 -0.8
v 15.5 6.8 -0.8
v 15.5 6.9 -0.8
v 15.7 6.8 -0.8
v 15.7 6.9 -0.8
v 15.8 6.7 -0.8
v 15.8 6.8 -0.8
v 16 4.4 -0.8
v 16 4.9 -0.8
v 16 6.6 -0.8
v 16 6.7 -0.8
v 16.4 6.6 -0.8
v 16.4 7 -0.8
v 16.8 6.6 -0.8
v 16.8 7 -0.8
v 17.2 7 -0.8
v 17.6 7 -0.8
v 18 4.4 -0.8
v 18 4.9 -0.8
v 18 6.6 -0.8
v 18 7 -0.8
v 18 11 -0.8
v 18 11.4 -0.8
v 13.3 4.3 -0.9
v 13.3 4.4 -0.9
v 13.3 4.9 -0.9
v 13.3 5 -0.9
v 15.1 4.3 -0.9
v 15.1 4.4 -0.9
v 15.1 4.9 -0.9
v 15.1 5 -0.9
v 16.1 4.3 -0.9
v 16.1 4.4 -0.9
v 16.1 4.9 -0.9
v 16.1 5 -0.9
v 17.9 4.3 -0.9
v 17.9 4.4 -0.9
v 17.9 4.9 -0.9
v 17.9 5 -0.9
v 13.4 4.2 -1
v 13.4 4.3 -1
v 15 4.2 -1
v 15 4.3 -1
v 16.2 4.2 -1
v 16.2 4.3 -1
v 17.8 4.2 -1
v 17.8 4.3 -1
v 13.6 5 -1.2
v 13.6 6.2 -1.2
v 15.1 5 -1.2
v 16.1 5 -1.2
v 17.6 5 -1.2
v 17.6 6.2 -1.2
v 13.6 5 -4.8
v 13.6 6.2 -4.8
v 15.1 5 -4.8
v 16.1 5 -4.8
v 17.6 5 -4.8
v 17.6 6.2 -4.8
v 13.4 4.2 -5
v 13.4 4.3 -5
v 15 4.2 -5
v 15 4.3 -5
v 16.2 4.2 -5
v 16.2 4.3 -5
v 17.8 4.2 -5
v 17.8 4.3 -5
v 13.3 4.3 -5.1
v 13.3 4.4 -5.1
v 13.3 4.9 -5.1
v 13.3 5 -5.1
v 15.1 4.3 -5.1
v 15.1 4.4 -5.1
v 15.1 4.9 -5.1
v 15.1 5 -5.1
v 16.1 4.3 -5.1
v 16.1 4.4 -5.1
v 16.1 4.9 -5.1
v 16.1 5 -5.1
v 17.9 4.3 -5.1
v 17.9 4.4 -5.1
v 17.9 4.9 -5.1
v 17.9 5 -5.1
v 13.2 4.4 -5.2
v 13.2 4.9 -5.2
v 13.2 11 -5.2
v 13.2 11.4 -5.2
v 15.2 4.4 -5.2
v 15.2 4.9 -5.2
v 16 4.4 -5.2
v 16 4.9 -5.2
v 18 4.4 -5.2
v 18 4.9 -5.2
v 18 11 -5.2
v 18 11.4 -5.2
v 12.8 6.2 -5.6
v 12.8 11 -5.6
v 18.4 6.2 -5.6
v 18.4 11 -5.6
v 13.4 4.2 -1
v 15 4.2 -1
v 16.2 4.2 -1
v 17.8 4.2 -1
v 13.4 4.2 -5
v 15 4.2 -5
v 16.2 4.2 -5
v 17.8 4.2 -5
v 13.3 4.3 -0.9
v 15.1 4.3 -0.9
v 16.1 4.3 -0.9
v 17.9 4.3 -0.9
v 13.4 4.3 -1
v 15 4.3 -1
v 16.2 4.3 -1
v 17.8 4.3 -1
v 13.4 4.3 -5
v 15 4.3 -5
v 16.2 4.3 -5
v 17.8 4.3 -5
v 13.3 4.3 -5.1
v 15.1 4.3 -5.1
v 16.1 4.3 -5.1
v 17.9 4.3 -5.1
v 13.2 4.4 -0.8
v 15.2 4.4 -0.8
v 16 4.4 -0.8
v 18 4.4 -0.8
v 13.3 4.4 -0.9
v 15.1 4.4 -0.9
v 16.1 4.4 -0.9
v 17.9 4.4 -0.9
v 13.3 4.4 -5.1
v 15.1 4.4 -5.1
v 16.1 4.4 -5.1
v 17.9 4.4 -5.1
v 13.2 4.4 -5.2
v 15.2 4.4 -5.2
v 16 4.4 -5.2
v 18 4.4 -5.2
v 15.1 5 -1.2
v 16.1 5 -1.2
v 15.1 5 -4.8
v 16.1 5 -4.8
v 12.8 6.2 -0.4
v 18.4 6.2 -0.4
v 13.6 6.2 -1.2
v 17.6 6.2 -1.2
v 13.6 6.2 -4.8
v 17.6 6.2 -4.8
v 12.8 6.2 -5.6
v 18.4 6.2 -5.6
v 13.2 7 -0.4
v 13.6 7 -0.4
v 14 7 -0.4
v 14.4 7 -0.4
v 14.8 7 -0.4
v 16.4 7 -0.4
v 16.8 7 -0.4
v 17.2 7 -0.4
v 17.6 7 -0.4
v 18 7 -0.4
v 13.2 7 -0.8
v 13.6 7 -0.8
v 14 7 -0.8
v 14.4 7 -0.8
v 14.8 7 -0.8
v 16.4 7 -0.8
v 16.8 7 -0.8
v 17.2 7 -0.8
v 17.6 7 -0.8
v 18 7 -0.8
v 13.6 8.2 0
v 15.2 8.2 0
v 16 8.2 0
v 17.6 8.2 0
v 13.6 8.2 -0.4
v 15.2 8.2 -0.4
v 16 8.2 -0.4
v 17.6 8.2 -0.4
v 15.2 9 0
v 16 9 0
v 15.2 9 -0.4
v 16 9 -0.4
v 13.2 9.8 0
v 13.6 9.8 0
v 17.6 9.8 0
v 18 9.8 0
v 13.2 9.8 -0.4
v 13.6 9.8 -0.4
v 17.6 9.8 -0.4
v 18 9.8 -0.4
v 13.2 4.9 -0.8
v 15.2 4.9 -0.8
v 16 4.9 -0.8
v 18 4.9 -0.8
v 13.3 4.9 -0.9
v 15.1 4.9 -0.9
v 16.1 4.9 -0.9
v 17.9 4.9 -0.9
v 13.3 4.9 -5.1
v 15.1 4.9 -5.1
v 16.1 4.9 -5.1
v 17.9 4.9 -5.1
v 13.2 4.9 -5.2
v 15.2 4.9 -5.2
v 16 4.9 -5.2
v 18 4.9 -5.2
v 13.3 5 -0.9
v 15.1 5 -0.9
v 16.1 5 -0.9
v 17.9 5 -0.9
v 13.6 5 -1.2
v 15.1 5 -1.2
v 16.1 5 -1.2
v 17.6 5 -1.2
v 13.6 5 -4.8
v 15.1 5 -4.8
v 16.1 5 -4.8
v 17.6 5 -4.8
v 13.3 5 -5.1
v 15.1 5 -5.1
v 16.1 5 -5.1
v 17.9 5 -5.1
v 13.2 6.6 -0.4
v 14.4 6.6 -0.4
v 14.8 6.6 -0.4
v 15.2 6.6 -0.4
v 16 6.6 -0.4
v 16.4 6.6 -0.4
v 16.8 6.6 -0.4
v 18 6.6 -0.4
v 13.2 6.6 -0.8
v 14.4 6.6 -0.8
v 14.8 6.6 -0.8
v 15.2 6.6 -0.8
v 16 6.6 -0.8
v 16.4 6.6 -0.8
v 16.8 6.6 -0.8
v 18 6.6 -0.8
v 15.2 6.7 -0.4
v 15.4 6.7 -0.4
v 15.8 6.7 -0.4
v 16 6.7 -0.4
v 15.2 6.7 -0.8
v 15.4 6.7 -0.8
v 15.8 6.7 -0.8
v 16 6.7 -0.8
v 15.4 6.8 -0.4
v 15.5 6.8 -0.4
v 15.7 6.8 -0.4
v 15.8 6.8 -0.4
v 15.4 6.8 -0.8
v 15.5 6.8 -0.8
v 15.7 6.8 -0.8
v 15.8 6.8 -0.8
v 15.5 6.9 -0.4
v 15.7 6.9 -0.4
v 15.5 6.9 -0.8
v 15.7 6.9 -0.8
v 15.2 9.8 0
v 16 9.8 0
v 15.2 9.8 -0.4
v 16 9.8 -0.4
v 13.2 10.2 0
v 13.6 10.2 0
v 14.4 10.2 0
v 15.2 10.2 0
v 16 10.2 0
v 16.8 10.2 0
v 17.6 10.2 0
v 18 10.2 0
v 13.2 10.2 -0.4
v 13.6 10.2 -0.4
v 14.4 10.2 -0.4
v 15.2 10.2 -0.4
v 16 10.2 -0.4
v 16.8 10.2 -0.4
v 17.6 10.2 -0.4
v 18 10.2 -0.4
v 13.6 10.6 0
v 14.4 10.6 0
v 16.8 10.6 0
v 17.6 10.6 0
v 13.6 10.6 -0.4
v 14.4 10.6 -0.4
v 16.8 10.6 -0.4
v 17.6 10.6 -0.4
v 12.8 11 -0.4
v 18.4 11 -0.4
v 13.2 11 -0.8
v 18 11 -0.8
v 13.2 11 -5.2
v 18 11 -5.2
v 12.8 11 -5.6
v 18.4 11 -5.6
v 13.2 11.4 -0.8
v 18 11.4 -0.8
v 13.2 11.4 -5.2
v 18 11.4 -5.2

# faces
f 3/4/1 2/4/1 1/4/1
f 4/4/1 2/4/1 3/4/1
f 7/6/1 6/6/1 5/6/1
f 8/6/1 6/6/1 7/6/1
f 11/7/1 10/7/1 9/7/1
f 12/7/1 10/7/1 11/7/1
f 15/4/1 14/4/1 13/4/1
f 16/4/1 14/4/1 15/4/1
f 19/6/1 18/6/1 17/6/1
f 20/6/1 18/6/1 19/6/1
f 23/6/1 22/6/1 21/6/1
f 24/6/1 22/6/1 23/6/1
f 27/6/1 26/6/1 25/6/1
f 28/6/1 26/6/1 27/6/1
f 31/3/1 30/3/1 29/3/1
f 32/3/1 30/3/1 31/3/1
f 35/2/1 34/2/1 33/2/1
f 36/2/1 34/2/1 35/2/1
f 39/7/1 38/7/1 37/7/1
f 40/7/1 38/7/1 39/7/1
f 43/2/1 42/2/1 41/2/1
f 44/2/1 42/2/1 43/2/1
f 47/5/1 46/5/1 45/5/1
f 48/5/1 46/5/1 47/5/1
f 51/5/1 50/5/1 49/5/1
f 52/5/1 50/5/1 51/5/1
f 55/5/1 54/5/1 53/5/1
f 56/5/1 54/5/1 55/5/1
f 59/6/1 58/6/1 57/6/1
f 60/6/1 58/6/1 59/6/1
f 63/2/1 62/2/1 61/2/1
f 64/2/1 62/2/1 63/2/1
f 67/7/1 66/7/1 65/7/1
f 68/7/1 66/7/1 67/7/1
f 71/6/1 70/6/1 69/6/1
f 72/6/1 70/6/1 71/6/1
f 75/6/1 74/6/1 73/6/1
f 76/6/1 74/6/1 75/6/1
f 77/6/1 74/6/1 76/6/1
f 78/6/1 74/6/1 77/6/1
f 81/6/1 80/6/1 79/6/1
f 82/6/1 80/6/1 81/6/1
f 85/2/1 84/2/1 83/2/1
f 86/2/1 84/2/1 85/2/1
f 89/7/1 88/7/1 87/7/1
f 90/7/1 88/7/1 89/7/1
f 93/4/1 92/4/1 91/4/1
f 94/4/1 92/4/1 93/4/1
f 95/4/2 96/4/2 97/4/2
f 97/4/2 96/4/2 98/4/2
f 99/7/2 100/7/2 101/7/2
f 101/7/2 100/7/2 102/7/2
f 103/2/2 104/2/2 105/2/2
f 105/2/2 104/2/2 106/2/2
f 107/6/2 108/6/2 109/6/2
f 109/6/2 108/6/2 110/6/2
f 111/6/2 112/6/2 113/6/2
f 113/6/2 112/6/2 114/6/2
f 115/6/2 116/6/2 117/6/2
f 117/6/2 116/6/2 118/6/2
f 118/6/2 116/6/2 119/6/2
f 119/6/2 116/6/2 120/6/2
f 121/6/2 122/6/2 123/6/2
f 123/6/2 122/6/2 124/6/2
f 125/2/2 126/2/2 127/2/2
f 127/2/2 126/2/2 128/2/2
f 129/7/2 130/7/2 131/7/2
f 131/7/2 130/7/2 132/7/2
f 133/5/2 134/5/2 135/5/2
f 135/5/2 134/5/2 136/5/2
f 137/5/2 138/5/2 139/5/2
f 139/5/2 138/5/2 140/5/2
f 141/5/2 142/5/2 143/5/2
f 143/5/2 142/5/2 144/5/2
f 145/2/2 146/2/2 147/2/2
f 147/2/2 146/2/2 148/2/2
f 149/3/2 150/3/2 151/3/2
f 151/3/2 150/3/2 152/3/2
f 153/2/2 154/2/2 155/2/2
f 155/2/2 154/2/2 156/2/2
f 157/7/2 158/7/2 159/7/2
f 159/7/2 158/7/2 160/7/2
f 161/6/2 162/6/2 163/6/2
f 163/6/2 162/6/2 164/6/2
f 165/6/2 166/6/2 167/6/2
f 167/6/2 166/6/2 168/6/2
f 169/6/2 170/6/2 171/6/2
f 171/6/2 170/6/2 172/6/2
f 173/6/2 174/6/2 175/6/2
f 175/6/2 174/6/2 176/6/2
f 177/7/2 178/7/2 179/7/2
f 179/7/2 178/7/2 180/7/2
f 181/4/2 182/4/2 183/4/2
f 183/4/2 182/4/2 184/4/2
f 185/4/2 186/4/2 187/4/2
f 187/4/2 186/4/2 188/4/2
f 192/7/3 190/7/3 189/7/3
f 193/7/3 190/7/3 192/7/3
f 195/2/3 192/2/3 191/2/3
f 196/2/3 192/2/3 195/2/3
f 197/7/3 194/7/3 193/7/3
f 197/2/3 192/2/3 196/2/3
f 197/7/3 193/7/3 192/7/3
f 198/7/3 197/7/3 196/7/3
f 198/7/3 194/7/3 197/7/3
f 199/7/3 194/7/3 198/7/3
f 200/1/3 196/1/3 195/1/3
f 200/2/3 195/2/3 191/2/3
f 201/7/3 198/7/3 196/7/3
f 201/1/3 196/1/3 200/1/3
f 202/2/3 200/2/3 191/2/3
f 202/2/3 201/2/3 200/2/3
f 203/2/3 201/2/3 202/2/3
f 204/7/3 198/7/3 201/7/3
f 204/2/3 201/2/3 203/2/3
f 205/7/3 198/7/3 204/7/3
f 206/7/3 198/7/3 205/7/3
f 208/7/3 204/7/3 203/7/3
f 208/7/3 205/7/3 204/7/3
f 209/7/3 205/7/3 208/7/3
f 210/7/3 205/7/3 209/7/3
f 212/2/3 208/2/3 207/2/3
f 212/2/3 209/2/3 208/2/3
f 213/7/3 211/7/3 210/7/3
f 213/2/3 209/2/3 212/2/3
f 213/7/3 210/7/3 209/7/3
f 214/7/3 211/7/3 213/7/3
f 216/2/3 212/2/3 207/2/3
f 216/1/3 213/1/3 212/1/3
f 217/7/3 214/7/3 213/7/3
f 217/1/3 213/1/3 216/1/3
f 217/7/3 215/7/3 214/7/3
f 218/7/3 215/7/3 217/7/3
f 219/2/3 216/2/3 207/2/3
f 219/2/3 217/2/3 216/2/3
f 219/2/3 218/2/3 217/2/3
f 220/7/3 215/7/3 218/7/3
f 220/2/3 218/2/3 219/2/3
f 221/7/3 215/7/3 220/7/3
f 222/7/3 215/7/3 221/7/3
f 223/7/3 221/7/3 220/7/3
f 224/7/3 221/7/3 223/7/3
f 227/4/3 226/4/3 225/4/3
f 228/4/3 226/4/3 227/4/3
f 229/4/3 226/4/3 228/4/3
f 230/4/3 226/4/3 229/4/3
f 231/4/3 229/4/3 228/4/3
f 232/4/3 229/4/3 231/4/3
f 233/4/3 229/4/3 232/4/3
f 234/4/3 229/4/3 233/4/3
f 235/4/3 226/4/3 230/4/3
f 236/4/3 226/4/3 235/4/3
f 237/2/3 232/2/3 231/2/3
f 238/4/3 233/4/3 232/4/3
f 238/2/3 232/2/3 237/2/3
f 239/4/3 227/4/3 225/4/3
f 240/4/3 238/4/3 237/4/3
f 242/4/3 226/4/3 236/4/3
f 243/2/3 240/2/3 239/2/3
f 243/4/3 239/4/3 225/4/3
f 244/4/3 238/4/3 240/4/3
f 244/2/3 240/2/3 243/2/3
f 245/4/3 243/4/3 225/4/3
f 247/4/3 233/4/3 238/4/3
f 247/4/3 238/4/3 244/4/3
f 250/4/3 242/4/3 241/4/3
f 251/5/3 246/5/3 245/5/3
f 253/5/3 252/5/3 251/5/3
f 255/5/3 253/5/3 251/5/3
f 255/5/3 254/5/3 253/5/3
f 256/5/3 254/5/3 255/5/3
f 257/5/3 251/5/3 245/5/3
f 257/5/3 255/5/3 251/5/3
f 258/5/3 255/5/3 257/5/3
f 259/4/3 245/4/3 225/4/3
f 259/5/3 257/5/3 245/5/3
f 260/5/3 257/5/3 259/5/3
f 261/4/3 248/4/3 247/4/3
f 261/4/3 247/4/3 244/4/3
f 262/4/3 248/4/3 261/4/3
f 263/4/3 250/4/3 249/4/3
f 264/4/3 242/4/3 250/4/3
f 264/4/3 250/4/3 263/4/3
f 265/4/3 259/4/3 225/4/3
f 266/4/3 261/4/3 244/4/3
f 267/4/3 265/4/3 225/4/3
f 267/2/3 266/2/3 265/2/3
f 268/4/3 261/4/3 266/4/3
f 268/2/3 266/2/3 267/2/3
f 269/4/3 242/4/3 264/4/3
f 270/4/3 226/4/3 242/4/3
f 270/4/3 242/4/3 269/4/3
f 271/4/3 261/4/3 268/4/3
f 272/4/3 261/4/3 271/4/3
f 273/2/3 272/2/3 271/2/3
f 274/4/3 261/4/3 272/4/3
f 274/2/3 272/2/3 273/2/3
f 275/4/3 261/4/3 274/4/3
f 278/4/3 226/4/3 270/4/3
f 279/4/3 267/4/3 225/4/3
f 280/4/3 276/4/3 275/4/3
f 280/4/3 274/4/3 273/4/3
f 280/4/3 275/4/3 274/4/3
f 281/4/3 276/4/3 280/4/3
f 282/4/3 278/4/3 277/4/3
f 283/4/3 279/4/3 225/4/3
f 283/4/3 282/4/3 281/4/3
f 283/4/3 281/4/3 280/4/3
f 283/4/3 280/4/3 279/4/3
f 284/4/3 278/4/3 282/4/3
f 284/4/3 282/4/3 283/4/3
f 284/4/3 226/4/3 278/4/3
f 291/4/3 288/4/3 287/4/3
f 292/4/3 291/4/3 287/4/3
f 293/4/3 292/4/3 287/4/3
f 294/4/3 292/4/3 293/4/3
f 297/6/3 286/6/3 285/6/3
f 298/6/3 286/6/3 297/6/3
f 299/4/3 296/4/3 295/4/3
f 300/4/3 296/4/3 299/4/3
f 301/4/3 296/4/3 300/4/3
f 302/4/3 296/4/3 301/4/3
f 303/4/3 296/4/3 302/4/3
f 304/4/3 296/4/3 303/4/3
f 306/4/3 296/4/3 304/4/3
f 308/4/3 306/4/3 305/4/3
f 312/4/3 308/4/3 307/4/3
f 313/4/3 312/4/3 311/4/3
f 314/4/3 296/4/3 306/4/3
f 314/4/3 312/4/3 313/4/3
f 314/4/3 306/4/3 308/4/3
f 314/4/3 308/4/3 312/4/3
f 317/4/3 316/4/3 315/4/3
f 318/4/3 317/4/3 315/4/3
f 319/6/3 310/6/3 309/6/3
f 320/6/3 310/6/3 319/6/3
f 321/4/3 318/4/3 315/4/3
f 322/4/3 318/4/3 321/4/3
f 323/4/3 290/4/3 289/4/3
f 324/4/3 290/4/3 323/4/3
f 329/6/3 326/6/3 325/6/3
f 330/6/3 326/6/3 329/6/3
f 331/6/3 328/6/3 327/6/3
f 332/6/3 328/6/3 331/6/3
f 337/6/3 334/6/3 333/6/3
f 338/6/3 334/6/3 337/6/3
f 339/6/3 336/6/3 335/6/3
f 340/6/3 336/6/3 339/6/3
f 343/6/3 342/6/3 341/6/3
f 344/6/3 342/6/3 343/6/3
f 347/6/3 346/6/3 345/6/3
f 348/6/3 346/6/3 347/6/3
f 351/3/3 350/3/3 349/3/3
f 352/3/3 350/3/3 351/3/3
f 353/3/3 350/3/3 352/3/3
f 354/3/3 350/3/3 353/3/3
f 355/3/4 356/3/4 357/3/4
f 357/3/4 356/3/4 358/3/4
f 358/3/4 356/3/4 359/3/4
f 359/3/4 356/3/4 360/3/4
f 361/6/4 362/6/4 363/6/4
f 363/6/4 362/6/4 364/6/4
f 365/6/4 366/6/4 367/6/4
f 367/6/4 366/6/4 368/6/4
f 369/6/4 370/6/4 373/6/4
f 373/6/4 370/6/4 374/6/4
f 371/6/4 372/6/4 375/6/4
f 375/6/4 372/6/4 376/6/4
f 377/6/4 378/6/4 381/6/4
f 381/6/4 378/6/4 382/6/4
f 379/6/4 380/6/4 383/6/4
f 383/6/4 380/6/4 384/6/4
f 385/6/4 386/6/4 389/6/4
f 389/6/4 386/6/4 390/6/4
f 391/6/4 392/6/4 393/6/4
f 393/6/4 392/6/4 394/6/4
f 387/4/4 388/4/4 395/4/4
f 395/4/4 388/4/4 396/4/4
f 397/4/4 398/4/4 399/4/4
f 399/4/4 398/4/4 400/4/4
f 405/6/5 402/6/5 401/6/5
f 406/6/5 402/6/5 405/6/5
f 407/6/5 404/6/5 403/6/5
f 408/6/5 404/6/5 407/6/5
f 413/6/5 410/6/5 409/6/5
f 414/6/5 410/6/5 413/6/5
f 415/6/5 412/6/5 411/6/5
f 416/6/5 412/6/5 415/6/5
f 417/6/5 413/6/5 409/6/5
f 418/6/5 410/6/5 414/6/5
f 419/6/5 415/6/5 411/6/5
f 420/6/5 412/6/5 416/6/5
f 421/6/5 417/6/5 409/6/5
f 421/6/5 418/6/5 417/6/5
f 422/6/5 410/6/5 418/6/5
f 422/6/5 418/6/5 421/6/5
f 423/6/5 420/6/5 419/6/5
f 423/6/5 419/6/5 411/6/5
f 424/6/5 412/6/5 420/6/5
f 424/6/5 420/6/5 423/6/5
f 429/6/5 426/6/5 425/6/5
f 430/6/5 426/6/5 429/6/5
f 431/6/5 428/6/5 427/6/5
f 432/6/5 428/6/5 431/6/5
f 433/6/5 429/6/5 425/6/5
f 434/6/5 426/6/5 430/6/5
f 435/6/5 431/6/5 427/6/5
f 436/6/5 428/6/5 432/6/5
f 437/6/5 433/6/5 425/6/5
f 437/6/5 434/6/5 433/6/5
f 438/6/5 426/6/5 434/6/5
f 438/6/5 434/6/5 437/6/5
f 439/6/5 436/6/5 435/6/5
f 439/6/5 435/6/5 427/6/5
f 440/6/5 428/6/5 436/6/5
f 440/6/5 436/6/5 439/6/5
f 443/3/5 442/3/5 441/3/5
f 444/3/5 442/3/5 443/3/5
f 447/4/5 446/4/5 445/4/5
f 448/4/5 446/4/5 447/4/5
f 449/4/5 447/4/5 445/4/5
f 450/4/5 446/4/5 448/4/5
f 451/4/5 449/4/5 445/4/5
f 451/4/5 450/4/5 449/4/5
f 452/4/5 446/4/5 450/4/5
f 452/4/5 450/4/5 451/4/5
f 463/4/5 454/4/5 453/4/5
f 464/2/5 455/2/5 454/2/5
f 464/4/5 454/4/5 463/4/5
f 465/4/5 456/4/5 455/4/5
f 465/2/5 455/2/5 464/2/5
f 466/4/5 456/4/5 465/4/5
f 467/4/5 458/4/5 457/4/5
f 468/4/5 458/4/5 467/4/5
f 469/4/5 460/4/5 459/4/5
f 470/2/5 461/2/5 460/2/5
f 470/4/5 460/4/5 469/4/5
f 471/4/5 462/4/5 461/4/5
f 471/2/5 461/2/5 470/2/5
f 472/4/5 462/4/5 471/4/5
f 477/2/5 474/2/5 473/2/5
f 478/2/5 474/2/5 477/2/5
f 479/2/5 476/2/5 475/2/5
f 480/2/5 476/2/5 479/2/5
f 483/7/5 482/7/5 481/7/5
f 484/7/5 482/7/5 483/7/5
f 489/7/5 486/7/5 485/7/5
f 490/7/5 486/7/5 489/7/5
f 491/7/5 488/7/5 487/7/5
f 492/7/5 488/7/5 491/7/5
f 493/6/6 494/6/6 497/6/6
f 497/6/6 494/6/6 498/6/6
f 495/6/6 496/6/6 499/6/6
f 499/6/6 496/6/6 500/6/6
f 493/6/6 497/6/6 501/6/6
f 498/6/6 494/6/6 502/6/6
f 495/6/6 499/6/6 503/6/6
f 500/6/6 496/6/6 504/6/6
f 493/6/6 501/6/6 505/6/6
f 501/6/6 502/6/6 505/6/6
f 502/6/6 494/6/6 506/6/6
f 505/6/6 502/6/6 506/6/6
f 503/6/6 504/6/6 507/6/6
f 495/6/6 503/6/6 507/6/6
f 504/6/6 496/6/6 508/6/6
f 507/6/6 504/6/6 508/6/6
f 509/6/6 510/6/6 513/6/6
f 513/6/6 510/6/6 514/6/6
f 511/6/6 512/6/6 515/6/6
f 515/6/6 512/6/6 516/6/6
f 509/6/6 513/6/6 517/6/6
f 516/6/6 512/6/6 520/6/6
f 517/6/6 518/6/6 521/6/6
f 509/6/6 517/6/6 521/6/6
f 521/6/6 518/6/6 522/6/6
f 519/6/6 520/6/6 523/6/6
f 520/6/6 512/6/6 524/6/6
f 523/6/6 520/6/6 524/6/6
f 525/4/6 526/4/6 533/4/6
f 533/4/6 526/4/6 534/4/6
f 527/4/6 528/4/6 535/4/6
f 535/4/6 528/4/6 536/4/6
f 529/4/6 530/4/6 537/4/6
f 537/4/6 530/4/6 538/4/6
f 531/4/6 532/4/6 539/4/6
f 539/4/6 532/4/6 540/4/6
f 541/5/6 542/5/6 545/5/6
f 545/5/6 542/5/6 546/5/6
f 543/5/6 544/5/6 547/5/6
f 547/5/6 544/5/6 548/5/6
f 549/5/6 550/5/6 553/5/6
f 553/5/6 550/5/6 554/5/6
f 551/5/6 552/5/6 555/5/6
f 555/5/6 552/5/6 556/5/6
f 557/5/6 558/5/6 559/5/6
f 559/5/6 558/5/6 560/5/6
f 561/7/6 562/7/6 563/7/6
f 563/7/6 562/7/6 564/7/6
f 565/7/6 566/7/6 573/7/6
f 573/7/6 566/7/6 574/7/6
f 567/7/6 568/7/6 575/7/6
f 575/7/6 568/7/6 576/7/6
f 569/7/6 570/7/6 577/7/6
f 577/7/6 570/7/6 578/7/6
f 571/7/6 572/7/6 579/7/6
f 579/7/6 572/7/6 580/7/6
f 581/7/6 582/7/6 585/7/6
f 585/7/6 582/7/6 586/7/6
f 583/7/6 584/7/6 587/7/6
f 587/7/6 584/7/6 588/7/6
f 589/4/6 590/4/6 591/4/6
f 591/4/6 590/4/6 592/4/6
f 589/4/6 591/4/6 593/4/6
f 592/4/6 590/4/6 594/4/6
f 589/4/6 593/4/6 595/4/6
f 593/4/6 594/4/6 595/4/6
f 594/4/6 590/4/6 596/4/6
f 595/4/6 594/4/6 596/4/6
f 597/4/6 598/4/6 599/4/6
f 599/4/6 598/4/6 600/4/6
